<svg xmlns="http://www.w3.org/2000/svg" viewBox="0 0 1827 1550" fill="#fff"><path d="M832 .6c-203.9 9.9-394.8 85.8-544.5 216.5-17.1 14.9-58.1 55.8-72.9 72.9C128.8 388.2 67.5 500.2 29 628.5 15.5 673.4.2 745.4 1.2 759.2c.9 12.7 13.7 20.2 25.3 14.9 6.6-3 9-6.8 11.5-17.8C59.7 658.5 78.7 601 111.1 536c19-38.1 36.6-67 60.1-98.5 49-65.9 122-134 196.9-183.7C476 182.2 592.4 138.2 707.5 125.6c35.5-3.9 85.7-5.1 116.5-2.7 77.6 6.1 146.4 25.2 216.8 60.5 55.9 28 100.7 60 142.7 102.1 72.5 72.4 119.4 159.5 133.9 248 4.3 26.2 5.1 38.1 5.1 72.5-.1 34.6-1.1 47.7-6.1 77-12.1 71.9-44.4 144.2-89.8 201-13.1 16.4-39.9 43.2-55.8 55.8-45.1 35.8-96.2 60.2-136.2 65.2-13.4 1.7-34.7.8-45-1.9-27.4-7.2-50.7-28.4-59.1-53.6-5.1-15-3.5-31.5 4.6-48.4 9.2-19.5 18.2-28.6 62.9-63.5 23.2-18.2 31.9-25.8 44.1-38.2 36.7-37.7 58.7-86.8 65.5-146.4 2-17.8 1.5-54.9-1-70.5-7.3-45.7-24.5-85-54.6-125-30.6-40.6-68.5-71.8-116-95.4-42.8-21.3-84.3-33.3-132-38.3-18.1-1.9-62.6-1.6-82.5.6-87.8 9.5-171.1 41-245.1 92.6-76.9 53.6-143.8 132-188 220.2-33.7 67.4-54.3 138.3-62 213.8-2.1 20.4-2.5 75.1-.6 94.5 7.3 76.1 25.4 139.6 58.9 206.5 39.8 79.6 94 148.7 164.8 209.9 102.1 88.4 222.2 146.7 355 172.5 75.8 14.7 158 18.5 237.5 11 102.8-9.6 210.7-39.9 305-85.6 156.8-75.9 281.8-193 369-345.5 10.9-19 32.2-61.3 41-81.3 31.7-72.5 57.1-155.8 67-219.7 3.1-20.2 2.7-24.9-2.8-30.6-4-4.2-7.5-5.7-13.3-5.7-7 0-12.8 3.4-15.7 9.2-1.3 2.4-4.1 13.1-6.3 23.8-29.3 141.3-73.9 239.4-148.1 326-67 78.3-143.8 142.2-228.8 190.7-156.6 89.3-326.1 120.7-481.5 89.2-89.8-18.2-178.9-61.7-254-124-13-10.7-50.8-48.6-61.4-61.4-44.1-53.4-76.8-114.6-93.5-175.1-25.2-91.4-17.1-199.1 21.7-288.4 11.7-27.1 23-48 39.3-72.5 33.3-50.4 74-88.6 125.9-118 55.4-31.5 104.1-40.9 140.7-27.2 9.5 3.6 13.7 6 22.7 12.8 13.5 10.1 23.5 24.7 27.7 40 2.1 7.9 2.4 25.1.5 32.9-1.8 7.8-9.1 22.3-15 30.1-8 10.5-20.7 21.8-51.2 45.6-15.7 12.2-33.1 26.6-38.7 31.8-30.4 28.7-54 69.7-65.2 113.2-10.7 41.4-11.8 88.4-3 128.3 14.3 64.4 53.7 124 110.9 167.9 52.5 40.3 112.6 64.5 180.6 72.6 28.3 3.5 71.5 3 103.5-1.1 119-15.1 235.9-76.4 320.5-168.3 59.8-65 103.6-138 131-218.3 33.3-97.5 41-192.6 23.4-287.3-15.9-85.2-50.8-165.1-105.8-242-68.1-95.3-172.9-181.5-283.1-233C1116.5 33.1 1025.9 9.9 922.5 2 908.3.9 845.7-.1 832 .6z"/></svg>
