<?xml version="1.0" standalone="no"?>
<!DOCTYPE svg PUBLIC "-//W3C//DTD SVG 20010904//EN"
 "http://www.w3.org/TR/2001/REC-SVG-20010904/DTD/svg10.dtd">
<svg xmlns="http://www.w3.org/2000/svg" viewBox="0 0 1827 1550" fill="#ffffff">
   <g transform="translate(0,1550) scale(0.1,-0.1)">
       <path d="M8320 15494 c-2039 -99 -3948 -858 -5445 -2165 -171 -149 -581 -558 -729 -729 -858 -982 -1471 -2102 -1856 -3385 -135 -449 -288 -1169 -278 -1307 9 -127 137 -202 253 -149 66 30 90 68 115 178 217 978 407 1553 731 2203 190 381 366 670 601 985 490 659 1220 1340 1969 1837 1079 716 2243 1156 3394 1282 355 39 857 51 1165 27 776 -61 1464 -252 2168 -605 559 -280 1007 -600 1427 -1021 725 -724 1194 -1595 1339 -2480 43 -262 51 -381 51 -725 -1 -346 -11 -477 -61 -770 -121 -719 -444 -1442 -898 -2010 -131 -164 -399 -432 -558 -558 -451 -358 -962 -602 -1362 -652 -134 -17 -347 -8 -450 19 -274 72 -507 284 -591 536 -51 150 -35 315 46 484 92 195 182 286 629 635 232 182 319 258 441 382 367 377 587 868 655 1464 20 178 15 549 -10 705 -73 457 -245 850 -546 1250 -306 406 -685 718 -1160 954 -428 213 -843 333 -1320 383 -181 19 -626 16 -825 -6 -878 -95 -1711 -410 -2451 -926 -769 -536 -1438 -1320 -1880 -2202 -337 -674 -543 -1383 -620 -2138 -21 -204 -25 -751 -6 -945 73 -761 254 -1396 589 -2065 398 -796 940 -1487 1648 -2099 1021 -884 2222 -1467 3550 -1725 758 -147 1580 -185 2375 -110 1028 96 2107 399 3050 856 1568 759 2818 1930 3690 3455 109 190 322 613 410 813 317 725 571 1558 670 2197 31 202 27 249 -28 306 -40 42 -75 57 -133 57 -70 0 -128 -34 -157 -92 -13 -24 -41 -131 -63 -238 -293 -1413 -739 -2394 -1481 -3260 -670 -783 -1438 -1422 -2288 -1907 -1566 -893 -3261 -1207 -4815 -892 -898 182 -1789 617 -2540 1240 -130 107 -508 486 -614 614 -441 534 -768 1146 -935 1751 -252 914 -171 1991 217 2884 117 271 230 480 393 725 333 504 740 886 1259 1180 554 315 1041 409 1407 272 95 -36 137 -60 227 -128 135 -101 235 -247 277 -400 21 -79 24 -251 5 -329 -18 -78 -91 -223 -150 -301 -80 -105 -207 -218 -512 -456 -157 -122 -331 -266 -387 -318 -304 -287 -540 -697 -652 -1132 -107 -414 -118 -884 -30 -1283 143 -644 537 -1240 1109 -1679 525 -403 1126 -645 1806 -726 283 -35 715 -30 1035 11 1190 151 2359 764 3205 1683 598 650 1036 1380 1310 2183 333 975 410 1926 234 2873 -159 852 -508 1651 -1058 2420 -681 953 -1729 1815 -2831 2330 -885 414 -1791 646 -2825 725 -142 11 -768 21 -905 14z" />
   </g>
</svg>
